<mxfile host="app.diagrams.net" modified="2024-05-22T14:18:20.787Z" agent="Mozilla/5.0 (Windows NT 10.0; Win64; x64) AppleWebKit/537.36 (KHTML, like Gecko) Chrome/123.0.0.0 Safari/537.36 OPR/109.0.0.0" version="24.4.6" etag="L7CNm8Tb_vrb10ZUaa2y" type="github">
  <diagram name="PÃ¡gina-1" id="MbWJrqZTyNMMaJOtawuF">
    <mxGraphModel>
      <root>
        <mxCell id="0" />
        <mxCell id="1" parent="0" />
      </root>
    </mxGraphModel>
  </diagram>
</mxfile>
